<svg width="33" height="32" viewBox="0 0 33 32" fill="none" xmlns="http://www.w3.org/2000/svg">
<g id="Add module">
<g id="vuesax/bold/add-circle">
<g id="add-circle">
<path id="Vector" d="M16.5003 2.66666C9.15366 2.66666 3.16699 8.65332 3.16699 16C3.16699 23.3467 9.15366 29.3333 16.5003 29.3333C23.847 29.3333 29.8337 23.3467 29.8337 16C29.8337 8.65332 23.847 2.66666 16.5003 2.66666ZM21.8337 17H17.5003V21.3333C17.5003 21.88 17.047 22.3333 16.5003 22.3333C15.9537 22.3333 15.5003 21.88 15.5003 21.3333V17H11.167C10.6203 17 10.167 16.5467 10.167 16C10.167 15.4533 10.6203 15 11.167 15H15.5003V10.6667C15.5003 10.12 15.9537 9.66666 16.5003 9.66666C17.047 9.66666 17.5003 10.12 17.5003 10.6667V15H21.8337C22.3803 15 22.8337 15.4533 22.8337 16C22.8337 16.5467 22.3803 17 21.8337 17Z" fill="#798795"/>
</g>
</g>
</g>
</svg>
