<svg width="25" height="24" viewBox="0 0 25 24" fill="none" xmlns="http://www.w3.org/2000/svg">
<g id="AI Query">
<path id="Fill 282" fill-rule="evenodd" clip-rule="evenodd" d="M15.6419 13.131H17.2399V11.631H15.6419V13.131ZM11.9069 13.131H13.5059V11.631H11.9069V13.131ZM8.17285 13.131H9.77185V11.631H8.17285V13.131ZM19.6079 5.11999C17.7729 3.28499 15.3319 2.27399 12.7319 2.27399C10.1329 2.27399 7.68985 3.28499 5.85485 5.12099C4.01485 6.95999 3.00285 9.40499 3.00485 12.004C3.00485 14.64 4.38885 17.152 4.89085 17.976L2.54785 21.712L3.46085 21.704C3.51885 21.704 9.27085 21.654 12.5209 21.724C12.5939 21.725 12.6659 21.726 12.7379 21.726C15.3339 21.726 17.7659 20.719 19.6079 18.876C23.3999 15.083 23.3999 8.91299 19.6079 5.11999Z" fill="#00ACFB"/>
</g>
</svg>
