<svg width="25" height="24" viewBox="0 0 25 24" fill="none" xmlns="http://www.w3.org/2000/svg">
<g id="vuesax/bold/empty-wallet-time">
<g id="empty-wallet-time">
<path id="Vector" d="M5.5 15C4.56 15 3.69 15.33 3 15.88C2.08 16.61 1.5 17.74 1.5 19C1.5 21.21 3.29 23 5.5 23C6.51 23 7.43 22.62 8.14 22C8.97 21.27 9.5 20.2 9.5 19C9.5 16.79 7.71 15 5.5 15ZM6.5 19.25C6.5 19.51 6.36 19.76 6.14 19.89L4.89 20.64C4.77 20.72 4.63 20.75 4.5 20.75C4.25 20.75 4 20.62 3.86 20.39C3.65 20.03 3.76 19.57 4.12 19.36L5.01 18.83V17.75C5 17.34 5.34 17 5.75 17C6.16 17 6.5 17.34 6.5 17.75V19.25Z" fill="#798795"/>
<path id="Vector_2" d="M15.35 3.94999V7.74999H13.85V3.94999C13.85 3.67999 13.61 3.54999 13.45 3.54999C13.4 3.54999 13.35 3.55999 13.3 3.57999L5.37 6.56999C4.84 6.76999 4.5 7.26999 4.5 7.83999V8.50999C3.59 9.18999 3 10.28 3 11.51V7.83999C3 6.64999 3.73 5.58999 4.84 5.16999L12.78 2.16999C13 2.08999 13.23 2.04999 13.45 2.04999C14.45 2.04999 15.35 2.85999 15.35 3.94999Z" fill="#798795"/>
<path id="Vector_3" d="M21.9997 14.5V15.5C21.9997 15.77 21.7897 15.99 21.5097 16H20.0497C19.5197 16 19.0397 15.61 18.9997 15.09C18.9697 14.78 19.0897 14.49 19.2897 14.29C19.4697 14.1 19.7197 14 19.9897 14H21.4997C21.7897 14.01 21.9997 14.23 21.9997 14.5Z" fill="#798795"/>
<path id="Vector_4" d="M19.98 12.95H21C21.55 12.95 22 12.5 22 11.95V11.51C22 9.44 20.31 7.75 18.24 7.75H6.76C5.91 7.75 5.13 8.03 4.5 8.51C3.59 9.19 3 10.28 3 11.51V13.29C3 13.67 3.4 13.91 3.76 13.79C4.32 13.6 4.91 13.5 5.5 13.5C8.53 13.5 11 15.97 11 19C11 19.72 10.81 20.51 10.51 21.21C10.35 21.57 10.6 22 10.99 22H18.24C20.31 22 22 20.31 22 18.24V18.05C22 17.5 21.55 17.05 21 17.05H20.13C19.17 17.05 18.25 16.46 18 15.53C17.8 14.77 18.04 14.03 18.54 13.55C18.91 13.17 19.42 12.95 19.98 12.95ZM14.5 12.75H9.5C9.09 12.75 8.75 12.41 8.75 12C8.75 11.59 9.09 11.25 9.5 11.25H14.5C14.91 11.25 15.25 11.59 15.25 12C15.25 12.41 14.91 12.75 14.5 12.75Z" fill="#798795"/>
</g>
</g>
</svg>
